<?xml version="1.0" encoding="UTF-8"?>
<svg version="1.1" xmlns="http://www.w3.org/2000/svg" width="48" height="48">
<path d="M0 0 C15.84 0 31.68 0 48 0 C48 15.84 48 31.68 48 48 C32.16 48 16.32 48 0 48 C0 32.16 0 16.32 0 0 Z " fill="#7F53A8" transform="translate(0,0)"/>
<path d="M0 0 C9.9 0 19.8 0 30 0 C30 15.84 30 31.68 30 48 C26.7 48 23.4 48 20 48 C15.80050912 40.13185276 12.35158937 32.58413679 9.89453125 23.96875 C7.97217793 17.58888744 4.9264592 11.70486469 1.83203125 5.82421875 C1 4 1 4 0 0 Z " fill="#A991C7" transform="translate(18,0)"/>
<path d="M0 0 C1.98 0 3.96 0 6 0 C10.53656049 8.58993702 14.36223715 17.16941389 17.640625 26.30859375 C18.97557788 29.9336813 20.45771653 33.45891715 22 37 C22.73663158 38.78861046 23.46671619 40.57994452 24.1875 42.375 C24.70376953 43.65503906 24.70376953 43.65503906 25.23046875 44.9609375 C26 47 26 47 26 48 C17.42 48 8.84 48 0 48 C2.53285601 41.66785998 5.03589633 35.69885919 8.046875 29.640625 C10.17520357 23.74410816 8.69964264 19.67446171 6.20507812 14.22070312 C5.82802734 13.42599609 5.45097656 12.63128906 5.0625 11.8125 C4.32326197 10.21528623 3.5849417 8.61764728 2.84765625 7.01953125 C2.51773682 6.31932861 2.18781738 5.61912598 1.84790039 4.89770508 C1 3 1 3 0 0 Z " fill="#8156AE" transform="translate(12,0)"/>
<path d="M0 0 C8.58 0 17.16 0 26 0 C26 3.96 26 7.92 26 12 C24.73542969 12.06058594 23.47085938 12.12117187 22.16796875 12.18359375 C20.50780129 12.26800904 18.84764563 12.35265655 17.1875 12.4375 C16.35412109 12.47681641 15.52074219 12.51613281 14.66210938 12.55664062 C13.85966797 12.59853516 13.05722656 12.64042969 12.23046875 12.68359375 C11.49207764 12.72025146 10.75368652 12.75690918 9.99291992 12.79467773 C7.792505 12.94842141 7.792505 12.94842141 5 14 C4.16235732 12.04350603 3.33000941 10.08474444 2.5 8.125 C2.0359375 7.03445312 1.571875 5.94390625 1.09375 4.8203125 C0 2 0 2 0 0 Z " fill="#EEEEED" transform="translate(22,0)"/>
<path d="M0 0 C0.99 0 1.98 0 3 0 C5.02443091 3.98812889 7.02109119 7.9890897 9 12 C9.42539062 12.85464844 9.85078125 13.70929687 10.2890625 14.58984375 C10.82660156 15.72099609 10.82660156 15.72099609 11.375 16.875 C11.69210938 17.53242188 12.00921875 18.18984375 12.3359375 18.8671875 C14.17948679 24.78823405 12.3529147 29.19062262 9.6875 34.5 C9.37876953 35.13808594 9.07003906 35.77617188 8.75195312 36.43359375 C7.84752074 38.29577244 6.92701503 40.14897486 6 42 C5.42894531 43.1446875 4.85789062 44.289375 4.26953125 45.46875 C3.85058594 46.3040625 3.43164062 47.139375 3 48 C-0.96 48 -4.92 48 -9 48 C-9 43.71 -9 39.42 -9 35 C-7.68 35 -6.36 35 -5 35 C-5.33 36.98 -5.66 38.96 -6 41 C-1.545 40.505 -1.545 40.505 3 40 C4.0376342 37.77735746 5.05496179 35.54874335 6.0625 33.3125 C6.35705078 32.68666016 6.65160156 32.06082031 6.95507812 31.41601562 C9.17083267 26.43708483 9.01283963 23.72355581 7.15209961 18.7199707 C6.82218018 17.96288818 6.49226074 17.20580566 6.15234375 16.42578125 C5.79462891 15.59369141 5.43691406 14.76160156 5.06835938 13.90429688 C4.69517578 13.04900391 4.32199219 12.19371094 3.9375 11.3125 C3.19338133 9.60166307 2.45233644 7.88948488 1.71484375 6.17578125 C1.38605225 5.42208252 1.05726074 4.66838379 0.71850586 3.8918457 C0 2 0 2 0 0 Z " fill="#E1DDE7" transform="translate(9,0)"/>
<path d="M0 0 C0.66 0.33 1.32 0.66 2 1 C2.66 2.98 3.32 4.96 4 7 C8.62 7 13.24 7 18 7 C18 12.28 18 17.56 18 23 C14.37 23 10.74 23 7 23 C6.03654556 21.12762629 5.07946898 19.2519701 4.125 17.375 C3.59132813 16.33085937 3.05765625 15.28671875 2.5078125 14.2109375 C-1.6041979 5.45427286 -1.6041979 5.45427286 0 0 Z " fill="#A488C0" transform="translate(30,14)"/>
<path d="M0 0 C0.66 0.33 1.32 0.66 2 1 C2.66 2.98 3.32 4.96 4 7 C8.62 7 13.24 7 18 7 C18 7.66 18 8.32 18 9 C13.71 9 9.42 9 5 9 C7.07972255 14.73627084 7.07972255 14.73627084 10 20 C12.9569698 21.33364257 14.68302145 21.16865993 18 21 C18 21.66 18 22.32 18 23 C14.37 23 10.74 23 7 23 C6.03654556 21.12762629 5.07946898 19.2519701 4.125 17.375 C3.59132813 16.33085937 3.05765625 15.28671875 2.5078125 14.2109375 C-1.6041979 5.45427286 -1.6041979 5.45427286 0 0 Z " fill="#451F68" transform="translate(30,14)"/>
<path d="M0 0 C1.32 0 2.64 0 4 0 C3.67 1.98 3.34 3.96 3 6 C4.41702513 5.85769192 5.8336096 5.71099254 7.25 5.5625 C8.03890625 5.48128906 8.8278125 5.40007813 9.640625 5.31640625 C11.82364639 5.02365007 13.8773182 4.57935581 16 4 C14.79310745 7.10343799 13.49403054 10.01193893 12 13 C8.04 13 4.08 13 0 13 C0 8.71 0 4.42 0 0 Z " fill="#ECECEC" transform="translate(0,35)"/>
<path d="M0 0 C3.3 0 6.6 0 10 0 C10 3.63 10 7.26 10 11 C7.03 11 4.06 11 1 11 C0.67 7.37 0.34 3.74 0 0 Z " fill="#E9E7EB" transform="translate(38,37)"/>
<path d="M0 0 C1.32 0 2.64 0 4 0 C5.67557981 3.76693513 7.33891867 7.53915174 9 11.3125 C9.47695312 12.38435547 9.95390625 13.45621094 10.4453125 14.56054688 C11.12207031 16.10258789 11.12207031 16.10258789 11.8125 17.67578125 C12.23144531 18.62364502 12.65039062 19.57150879 13.08203125 20.5480957 C14 23 14 23 14 26 C13.01 26 12.02 26 11 26 C10.54109375 24.94941406 10.0821875 23.89882813 9.609375 22.81640625 C8.98961002 21.39842584 8.3698165 19.9804579 7.75 18.5625 C7.431521 17.83345459 7.11304199 17.10440918 6.78491211 16.35327148 C5.06259503 12.41448333 3.32557207 8.48326676 1.5625 4.5625 C0 1 0 1 0 0 Z " fill="#AE95CB" transform="translate(5,0)"/>
<path d="M0 0 C1.59606283 2.39409424 2.61063721 4.28348378 3.65625 6.90625 C3.95660156 7.65003906 4.25695313 8.39382812 4.56640625 9.16015625 C5.18880208 10.72005208 5.81119792 12.27994792 6.43359375 13.83984375 C6.73394531 14.58363281 7.03429688 15.32742187 7.34375 16.09375 C7.61380859 16.77115234 7.88386719 17.44855469 8.16210938 18.14648438 C9.05948078 20.26549524 9.05948078 20.26549524 11 23 C11.53916146 25.6602023 11.73370098 28.29262663 12 31 C11.01 31 10.02 31 9 31 C8.74605469 30.35933594 8.49210937 29.71867187 8.23046875 29.05859375 C5.88125649 23.15267002 5.88125649 23.15267002 3.375 17.3125 C0.91689716 11.3907068 -0.26257589 6.43310942 0 0 Z " fill="#9678B5" transform="translate(28,16)"/>
<path d="M0 0 C3 1 3 1 4.1875 2.875 C5 5 5 5 5 8 C5.99 8.33 6.98 8.66 8 9 C10.17593243 13.33395595 11.46995434 18.14380516 11 23 C10.34 23 9.68 23 9 23 C7.67807201 20.2959195 6.36735179 17.58730732 5.0625 14.875 C4.68931641 14.11445313 4.31613281 13.35390625 3.93164062 12.5703125 C1.92176574 8.36949291 0.47257974 4.69579236 0 0 Z " fill="#663C90" transform="translate(14,2)"/>
<path d="M0 0 C2.9512645 1.47563225 3.06923915 3.50079352 4.125 6.5625 C4.47820313 7.57441406 4.83140625 8.58632813 5.1953125 9.62890625 C5.46085937 10.41136719 5.72640625 11.19382812 6 12 C2.37 12 -1.26 12 -5 12 C-2.25 3.375 -2.25 3.375 0 0 Z " fill="#E3E0E6" transform="translate(27,36)"/>
<path d="M0 0 C1.32 0 2.64 0 4 0 C4.83764268 1.95649397 5.66999059 3.91525556 6.5 5.875 C7.19609375 7.51082031 7.19609375 7.51082031 7.90625 9.1796875 C9 12 9 12 9 14 C9.66 14 10.32 14 11 14 C11 16.97 11 19.94 11 23 C7.97136251 19.65805518 6.26622774 16.52651718 4.79296875 12.26953125 C3.87633194 9.64605349 2.85146036 7.07735078 1.8125 4.5 C1.46832031 3.6440625 1.12414062 2.788125 0.76953125 1.90625 C0.51558594 1.2771875 0.26164062 0.648125 0 0 Z " fill="#B7A4D1" transform="translate(18,0)"/>
<path d="M0 0 C0.66 0 1.32 0 2 0 C3.71767682 3.98188718 5.41037341 7.96479403 7 12 C7.66 12 8.32 12 9 12 C9 15.96 9 19.92 9 24 C8.34 24 7.68 24 7 24 C5 18 5 18 4.26953125 15.7734375 C3.20072083 12.52902819 2.14193135 9.33615319 0.8125 6.1875 C0 4 0 4 0 0 Z " fill="#794E95" transform="translate(1,1)"/>
<path d="M0 0 C1.98 0 3.96 0 6 0 C17 21.44382022 17 21.44382022 17 26 C16.01 26.33 15.02 26.66 14 27 C13.72285156 26.09636719 13.44570313 25.19273438 13.16015625 24.26171875 C12.79792969 23.08222656 12.43570312 21.90273438 12.0625 20.6875 C11.70285156 19.51574219 11.34320313 18.34398437 10.97265625 17.13671875 C10.33627721 15.08446023 9.67946621 13.03839863 9 11 C8.34 10.67 7.68 10.34 7 10 C6.54625 8.845 6.0925 7.69 5.625 6.5 C4.42410267 2.89357557 4.42410267 2.89357557 1.8125 2.0625 C1.214375 2.041875 0.61625 2.02125 0 2 C0 1.34 0 0.68 0 0 Z " fill="#8A5EB5" transform="translate(12,0)"/>
<path d="M0 0 C2.44006329 3.25341773 3.75644862 5.45141982 5.1875 9.125 C5.53167969 9.99382813 5.87585938 10.86265625 6.23046875 11.7578125 C7 14 7 14 7 16 C4.69 16 2.38 16 0 16 C0 10.72 0 5.44 0 0 Z " fill="#DEDAE5" transform="translate(0,3)"/>
<path d="M0 0 C1.65 0 3.3 0 5 0 C6.12918033 2.37309022 7.25342065 4.74831994 8.375 7.125 C8.69210937 7.79015625 9.00921875 8.4553125 9.3359375 9.140625 C11.16675254 13.03110695 12.72966893 16.88104776 14 21 C13.34 21.66 12.68 22.32 12 23 C8.875 16.375 8.875 16.375 10 13 C9.34 13 8.68 13 8 13 C7.15885829 11.56705502 6.32734313 10.12845595 5.5 8.6875 C5.0359375 7.88699219 4.571875 7.08648437 4.09375 6.26171875 C3 4 3 4 3 1 C2.34 1 1.68 1 1 1 C0.67 1.66 0.34 2.32 0 3 C0 2.01 0 1.02 0 0 Z " fill="#8559AE" transform="translate(0,0)"/>
<path d="M0 0 C1.99954746 -0.04254356 4.00041636 -0.04080783 6 0 C7 1 7 1 7.0625 4.5625 C7.041875 5.696875 7.02125 6.83125 7 8 C4.69 8 2.38 8 0 8 C0 5.36 0 2.72 0 0 Z " fill="#8D63B5" transform="translate(0,19)"/>
<path d="M0 0 C2.64 0 5.28 0 8 0 C6.125 6.875 6.125 6.875 5 8 C3.33382885 8.04063832 1.66611905 8.042721 0 8 C0 5.36 0 2.72 0 0 Z " fill="#5F3A7E" transform="translate(0,27)"/>
<path d="M0 0 C0.28746094 0.57878906 0.57492188 1.15757813 0.87109375 1.75390625 C1.57980738 3.16397662 2.29956419 4.56860674 3.03515625 5.96484375 C4.94155629 9.62542178 6.48096277 12.8477022 7 17 C5.140625 16.796875 5.140625 16.796875 3 16 C1.734375 13.890625 1.734375 13.890625 0.75 11.25 C0.41484375 10.38890625 0.0796875 9.5278125 -0.265625 8.640625 C-1.01609283 5.94213431 -1.21426742 3.78547647 -1 1 C-0.67 0.67 -0.34 0.34 0 0 Z " fill="#583679" transform="translate(29,31)"/>
<path d="M0 0 C0.66 0.33 1.32 0.66 2 1 C2.66 2.98 3.32 4.96 4 7 C8.62 7 13.24 7 18 7 C18 7.66 18 8.32 18 9 C15.89590361 9.02701408 13.79170822 9.04640223 11.6875 9.0625 C10.51574219 9.07410156 9.34398437 9.08570313 8.13671875 9.09765625 C5 9 5 9 2 8 C0.25 5.625 0.25 5.625 -1 3 C-0.67 2.01 -0.34 1.02 0 0 Z " fill="#704393" transform="translate(30,14)"/>
<path d="M0 0 C4.29 0 8.58 0 13 0 C13 1.32 13 2.64 13 4 C10.69 4 8.38 4 6 4 C6 3.34 6 2.68 6 2 C4.35 2.66 2.7 3.32 1 4 C0.67 2.68 0.34 1.36 0 0 Z " fill="#9374AC" transform="translate(35,23)"/>
<path d="M0 0 C2 3 2 3 3 5 C4.89533342 5.46523063 4.89533342 5.46523063 7.0625 5.625 C8.361875 5.74875 9.66125 5.8725 11 6 C11 6.66 11 7.32 11 8 C7.37 8 3.74 8 0 8 C-0.33 7.34 -0.66 6.68 -1 6 C-0.34 6 0.32 6 1 6 C0.67 4.02 0.34 2.04 0 0 Z " fill="#684685" transform="translate(37,29)"/>
<path d="M0 0 C3.00617269 3.00617269 2.59585316 5.82381598 3 10 C2.01 10 1.02 10 0 10 C-0.66 7.03 -1.32 4.06 -2 1 C-1.34 0.67 -0.68 0.34 0 0 Z " fill="#AB95C6" transform="translate(37,37)"/>
<path d="M0 0 C1.98 0 3.96 0 6 0 C8.09350689 3.4019487 8.17942163 6.05272412 8 10 C6 7 6 7 5.125 4.875 C4.15042479 2.79923543 4.15042479 2.79923543 1.875 2.25 C0.946875 2.12625 0.946875 2.12625 0 2 C0 1.34 0 0.68 0 0 Z " fill="#8158AA" transform="translate(12,0)"/>
<path d="M0 0 C0.66 0 1.32 0 2 0 C2.33 1.65 2.66 3.3 3 5 C3.66 5 4.32 5 5 5 C5 6.65 5 8.3 5 10 C4.34 10 3.68 10 3 10 C0.96564469 6.27034861 0 4.33094958 0 0 Z " fill="#61368C" transform="translate(20,15)"/>
<path d="M0 0 C0.99 0.33 1.98 0.66 3 1 C3 3.64 3 6.28 3 9 C2.34 9 1.68 9 1 9 C-1.125 3.375 -1.125 3.375 0 0 Z " fill="#6A3F89" transform="translate(7,16)"/>
<path d="M0 0 C2 1 2 1 3.1875 3.3125 C4.03624754 6.11989571 3.99928333 7.301935 3 10 C2.67 8.35 2.34 6.7 2 5 C1.34 5 0.68 5 0 5 C-0.33 5.66 -0.66 6.32 -1 7 C-1.625 5.1875 -1.625 5.1875 -2 3 C-1.34 2.01 -0.68 1.02 0 0 Z " fill="#70449B" transform="translate(20,10)"/>
<path d="M0 0 C2.97903734 2.97903734 4 5.80285329 4 10 C3.01 10 2.02 10 1 10 C0.67 6.7 0.34 3.4 0 0 Z " fill="#B39DD0" transform="translate(15,16)"/>
<path d="M0 0 C1.9375 0.75 1.9375 0.75 4 2 C4.75 4.125 4.75 4.125 5 6 C4.01 6.33 3.02 6.66 2 7 C0.5393715 4.35261084 0 3.10551666 0 0 Z " fill="#9D81BA" transform="translate(32,32)"/>
<path d="M0 0 C1.64826111 2.96687001 2.44271087 5.65626525 3 9 C2.01 8.67 1.02 8.34 0 8 C-0.38063221 5.6739143 -0.71269945 3.33944736 -1 1 C-0.67 0.67 -0.34 0.34 0 0 Z " fill="#4A266A" transform="translate(29,31)"/>
<path d="M0 0 C2.64 0 5.28 0 8 0 C7.67 0.99 7.34 1.98 7 3 C4.69 2.67 2.38 2.34 0 2 C0 1.34 0 0.68 0 0 Z " fill="#472465" transform="translate(0,27)"/>
<path d="M0 0 C2.55028983 1.27514492 2.93081711 2.40341297 4 5 C4 5.99 4 6.98 4 8 C3.34 8 2.68 8 2 8 C0.3125 5.6875 0.3125 5.6875 -1 3 C-0.67 2.01 -0.34 1.02 0 0 Z " fill="#61368F" transform="translate(30,14)"/>
</svg>
